<svg id="OBJECTS" xmlns="http://www.w3.org/2000/svg" xmlns:xlink="http://www.w3.org/1999/xlink" viewBox="0 0 273.91 202.33"><defs><style>.cls-1{font-size:44.21px;fill:#0075b4;font-family:FiraSans-Heavy, Fira Sans;font-weight:800;}.cls-2{font-size:14.56px;fill:#e95c00;font-family:FiraSans-Regular, Fira Sans;letter-spacing:0.24em;}.cls-3{letter-spacing:0.3em;}.cls-4{letter-spacing:0.3em;}.cls-5{letter-spacing:0.28em;}.cls-6{letter-spacing:0.3em;}.cls-7{fill:url(#Degradado_sin_nombre_5);}.cls-8{fill:url(#Degradado_sin_nombre_5-2);}.cls-9{fill:url(#Degradado_sin_nombre_5-3);}.cls-10{fill:url(#Degradado_sin_nombre_5-4);}.cls-11{fill:url(#Degradado_sin_nombre_5-5);}.cls-12{fill:url(#Degradado_sin_nombre_3);}.cls-13{opacity:0.2;}.cls-14{fill:#6b184e;}.cls-15{fill:#6e4d42;}.cls-16{fill:#ffb640;}.cls-17{fill:#fff;}.cls-18{opacity:0.3;}.cls-19{opacity:0.55;}.cls-20{fill:#2cbeff;}.cls-21{opacity:0.45;}.cls-22{fill:#ef3d30;}.cls-23{fill:#7c6b6a;}.cls-24{fill:#d3dae2;}.cls-25{fill:#ffa829;}</style><linearGradient id="Degradado_sin_nombre_5" x1="245.47" y1="255.86" x2="191.69" y2="85.16" gradientUnits="userSpaceOnUse"><stop offset="0" stop-color="#073e98"/><stop offset="0.25" stop-color="#0e56a2"/><stop offset="0.76" stop-color="#2193bb"/><stop offset="1" stop-color="#2ab2c8"/></linearGradient><linearGradient id="Degradado_sin_nombre_5-2" x1="140.51" y1="120.74" x2="93.55" y2="-28.3" xlink:href="#Degradado_sin_nombre_5"/><linearGradient id="Degradado_sin_nombre_5-3" x1="125.37" y1="125.51" x2="78.42" y2="-23.53" xlink:href="#Degradado_sin_nombre_5"/><linearGradient id="Degradado_sin_nombre_5-4" x1="130.52" y1="123.88" x2="83.57" y2="-25.15" xlink:href="#Degradado_sin_nombre_5"/><linearGradient id="Degradado_sin_nombre_5-5" x1="115.38" y1="128.65" x2="68.43" y2="-20.38" xlink:href="#Degradado_sin_nombre_5"/><linearGradient id="Degradado_sin_nombre_3" x1="300" y1="152.56" x2="205.5" y2="339.8" gradientUnits="userSpaceOnUse"><stop offset="0" stop-color="#ff992e"/><stop offset="0.22" stop-color="#f88138"/><stop offset="0.67" stop-color="#e74453"/><stop offset="1" stop-color="#da1467"/></linearGradient></defs><text class="cls-1" transform="translate(47.07 173.08)">BOOKME</text><text class="cls-2" transform="translate(0 197.19)">Y<tspan class="cls-3" x="11.52" y="0">our Journ</tspan><tspan class="cls-4" x="112.46" y="0">e</tspan><tspan class="cls-3" x="124.67" y="0">y Starts He</tspan><tspan class="cls-5" x="244.09" y="0">r</tspan><tspan class="cls-6" x="253.75" y="0">e!</tspan></text><path class="cls-7" d="M199.25,128.16V232.09a20.43,20.43,0,0,1,9.63-6.05V143l30,8.42v73.78h9.63V142.45Z" transform="translate(-115.13 -128.16)"/><rect class="cls-8" x="109.72" y="33.9" width="9.62" height="8.75"/><rect class="cls-9" x="98.45" y="50.97" width="9.62" height="8.75"/><rect class="cls-10" x="109.72" y="68.76" width="9.62" height="8.75"/><rect class="cls-11" x="98.45" y="85.82" width="9.62" height="8.75"/><path class="cls-12" d="M282.15,168.4V178h9v73.45H214.56a5.69,5.69,0,0,1,0-11.37h61.25v-87H255.25v9.63h10.94v67.76H214.56a15.32,15.32,0,1,0,0,30.63h86.19V168.4Z" transform="translate(-115.13 -128.16)"/><g class="cls-13"><path class="cls-14" d="M270.27,232.31c0,1.68-26.28,3-58.7,3s-58.69-1.36-58.69-3c0-.38,1.32-.74,3.73-1.07H266.53C269,231.57,270.27,231.93,270.27,232.31Z" transform="translate(-115.13 -128.16)"/></g><rect class="cls-15" x="53.53" y="89.67" width="78.66" height="9.52"/><path class="cls-14" d="M247.41,227.44H168.57v-9.7h78.84Zm-78.66-.18h78.47v-9.34H168.75Z" transform="translate(-115.13 -128.16)"/><path class="cls-16" d="M262.86,191.36v35.15a1.08,1.08,0,0,1-.32.77,1.07,1.07,0,0,1-.78.32H246.11a1.08,1.08,0,0,1-1.09-1.09v-1.85c0-.14,0-.28,0-.42a5.64,5.64,0,0,0-.46-1.89.61.61,0,0,0,0-.12,5.11,5.11,0,0,0-.6-1,5.62,5.62,0,0,0-4.37-2.36,5.71,5.71,0,0,0-3.27.89,5.83,5.83,0,0,0-2.15,2.51l0,.12a5.56,5.56,0,0,0-.29.9h0c0,.08,0,.15,0,.23s0,.2,0,.3a3.14,3.14,0,0,0,0,.45,2.71,2.71,0,0,0,0,.29v2a1.09,1.09,0,0,1-1.1,1.09H198a1.09,1.09,0,0,1-1.09-1.09v-1.85a5.89,5.89,0,0,0-5.49-5.83,5.7,5.7,0,0,0-5.91,5.7v1.73a1.42,1.42,0,0,1-1,1.34H183a1.09,1.09,0,0,1-1.09-1.09v-1.85a2.62,2.62,0,0,0,0-.28c0-.08,0-.15,0-.22s0-.06,0-.09l0-.24v0c0-.1,0-.19,0-.28a5.76,5.76,0,0,0-5.38-4.7,5.7,5.7,0,0,0-5.9,5.7v1.73a1.1,1.1,0,0,1-1.32,1.07L155.43,225a1.62,1.62,0,0,1-1.35-1.59V191.53a4.25,4.25,0,0,1,4.25-4.26H258.78A4.09,4.09,0,0,1,262.86,191.36Z" transform="translate(-115.13 -128.16)"/><path class="cls-14" d="M261.76,227.7H246.11a1.14,1.14,0,0,1-.84-.36,1.16,1.16,0,0,1-.35-.83v-1.85c0-.16,0-.29,0-.42a6,6,0,0,0-.45-1.86,1.17,1.17,0,0,0-.05-.11,6,6,0,0,0-.59-1,5.53,5.53,0,0,0-4.3-2.33,5.63,5.63,0,0,0-5.34,3.35s0,.07,0,.11a6,6,0,0,0-.29.88v0c0,.08,0,.15,0,.23s0,.19,0,.29,0,.28,0,.44a2.81,2.81,0,0,0,0,.29v2a1.19,1.19,0,0,1-1.19,1.19H198a1.19,1.19,0,0,1-1.19-1.19v-1.85a5.53,5.53,0,0,0,0-.71,5.71,5.71,0,0,0-5.36-5,5.63,5.63,0,0,0-5.78,5,5.49,5.49,0,0,0,0,.58v1.73a1.49,1.49,0,0,1-1.08,1.43H183a1.19,1.19,0,0,1-1.18-1.19v-1.85a2.62,2.62,0,0,0,0-.28c0-.07,0-.14,0-.21a.25.25,0,0,1,0-.08l0-.22v-.05c0-.09,0-.18,0-.27a5.59,5.59,0,0,0-11.1,1v1.73a1.19,1.19,0,0,1-1.43,1.16l-13.77-2.32a1.71,1.71,0,0,1-1.42-1.68V191.53a4.35,4.35,0,0,1,4.34-4.35H258.78a4.18,4.18,0,0,1,4.17,4.18v35.15a1.16,1.16,0,0,1-.34.83A1.18,1.18,0,0,1,261.76,227.7Zm-22.44-9h.21a5.72,5.72,0,0,1,4.44,2.4,6.4,6.4,0,0,1,.61,1.05.61.61,0,0,0,0,.12,5.8,5.8,0,0,1,.46,1.92c0,.13,0,.27,0,.43v1.85a1,1,0,0,0,.29.7,1,1,0,0,0,.71.3h15.65a1,1,0,0,0,.72-.3,1,1,0,0,0,.29-.7V191.36a4,4,0,0,0-4-4H158.33a4.16,4.16,0,0,0-4.16,4.16v31.89a1.53,1.53,0,0,0,1.27,1.5l13.78,2.32a1,1,0,0,0,1.2-1v-1.73a5.79,5.79,0,0,1,6-5.79,5.82,5.82,0,0,1,5.47,4.77,2.93,2.93,0,0,1,.05.29v0a1.49,1.49,0,0,0,0,.21s0,.06,0,.1,0,.14,0,.21,0,.2,0,.29v1.85a1,1,0,0,0,1,1h1.47a1.35,1.35,0,0,0,.91-1.25v-1.73q0-.3,0-.6a5.8,5.8,0,0,1,6-5.19,6,6,0,0,1,5.58,5.92v1.85a1,1,0,0,0,1,1h34.56a1,1,0,0,0,1-1v-2.28c0-.16,0-.32.05-.46s0-.2,0-.29,0-.16,0-.23v0a6.6,6.6,0,0,1,.3-.92.61.61,0,0,1,.05-.12,5.79,5.79,0,0,1,5.3-3.45Z" transform="translate(-115.13 -128.16)"/><path class="cls-17" d="M262.86,216.49v5.25H244.54a.61.61,0,0,0,0-.12,5.89,5.89,0,0,0-.6-1,5.64,5.64,0,0,0-7.64-1.47,5.68,5.68,0,0,0-2.15,2.5.61.61,0,0,0,0,.12H207a2.06,2.06,0,0,1-1.65-.83l-3.28-4.42-1.29-1.74a2.06,2.06,0,0,0-1.65-.83h-45v-5.25h47.69a2.06,2.06,0,0,1,1.64.83l3.28,4.42,1.29,1.74a2.06,2.06,0,0,0,1.65.83Z" transform="translate(-115.13 -128.16)"/><g class="cls-18"><path class="cls-14" d="M170.21,223.35h.43a5.69,5.69,0,0,0-.13,1.18v1.73a1.09,1.09,0,0,1-1.31,1.07L155.43,225a1.62,1.62,0,0,1-1.35-1.59v-2h1.57l13.55,2.29A1.08,1.08,0,0,0,170.21,223.35Z" transform="translate(-115.13 -128.16)"/></g><g class="cls-18"><path class="cls-15" d="M183,223.94h2.5a5.68,5.68,0,0,0,0,.59v1.73a1.42,1.42,0,0,1-1,1.34H183a1.09,1.09,0,0,1-1.09-1.09v-1.85a2.62,2.62,0,0,0,0-.28c0-.08,0-.15,0-.22s0-.06,0-.09l0-.24v0c0-.1,0-.19,0-.28s0-.12,0-.18H182A1.09,1.09,0,0,0,183,223.94Z" transform="translate(-115.13 -128.16)"/><path class="cls-14" d="M183,227.7a1.19,1.19,0,0,1-1.18-1.19v-1.85a2.62,2.62,0,0,0,0-.28c0-.07,0-.14,0-.21a.25.25,0,0,1,0-.08l0-.25v0c0-.09,0-.18,0-.27s0-.12,0-.18l0-.11h.44l0,.05a1,1,0,0,0,.89.54h2.6v.1a5.49,5.49,0,0,0,0,.58v1.73a1.49,1.49,0,0,1-1.08,1.43Zm-1.12-4.26v.07c0,.1,0,.19.05.29v0l0,.24s0,.06,0,.1,0,.14,0,.21a2.81,2.81,0,0,1,0,.29v1.85a1,1,0,0,0,1,1h1.47a1.35,1.35,0,0,0,.91-1.25v-1.73a4.1,4.1,0,0,1,0-.5H183a1.17,1.17,0,0,1-1-.59Z" transform="translate(-115.13 -128.16)"/></g><g class="cls-18"><path class="cls-14" d="M233.76,223.25h0c0,.08,0,.15,0,.23s0,.2,0,.3a3.14,3.14,0,0,0,0,.45,2.71,2.71,0,0,0,0,.29v2a1.09,1.09,0,0,1-1.1,1.09H198a1.09,1.09,0,0,1-1.09-1.09v-1.85a5.81,5.81,0,0,0-.05-.72h35.7a1.1,1.1,0,0,0,1-.69Z" transform="translate(-115.13 -128.16)"/></g><g class="cls-18"><path class="cls-14" d="M262.86,223.6v3.08a.84.84,0,0,1-.32.65,1.17,1.17,0,0,1-.78.27H246.11a1.21,1.21,0,0,1-.78-.27.86.86,0,0,1-.31-.65v-1.55c0-.12,0-.24,0-.36a3.93,3.93,0,0,0-.16-.83h.25a1,1,0,0,0,.24.31,1.27,1.27,0,0,0,.78.27h15.65a1.22,1.22,0,0,0,.78-.27A.85.85,0,0,0,262.86,223.6Z" transform="translate(-115.13 -128.16)"/></g><g class="cls-19"><path class="cls-17" d="M262.86,191.36V193a4.09,4.09,0,0,0-4.08-4.09H158.33a4.25,4.25,0,0,0-4.25,4.26v-1.66a4.25,4.25,0,0,1,4.25-4.26H258.78A4.09,4.09,0,0,1,262.86,191.36Z" transform="translate(-115.13 -128.16)"/></g><path class="cls-20" d="M262.86,216.19h0V191.36h0a4.67,4.67,0,0,0-4.68,4.67v15.48A4.67,4.67,0,0,0,262.86,216.19Z" transform="translate(-115.13 -128.16)"/><g class="cls-18"><path class="cls-14" d="M261.85,216.19h-1.63a2,2,0,0,1-2-2V192.76a1.4,1.4,0,0,1,1.4-1.4h1.63a1.4,1.4,0,0,0-1.4,1.4v21.39A2,2,0,0,0,261.85,216.19Z" transform="translate(-115.13 -128.16)"/></g><path class="cls-20" d="M233,203.77h0a6.21,6.21,0,0,0,6.2-6.2h0a6.21,6.21,0,0,0-6.2-6.21h0a6.21,6.21,0,0,0-6.21,6.21h0A6.21,6.21,0,0,0,233,203.77Z" transform="translate(-115.13 -128.16)"/><path class="cls-20" d="M217.7,203.77h0a6.21,6.21,0,0,0,6.21-6.2h0a6.21,6.21,0,0,0-6.21-6.21h0a6.21,6.21,0,0,0-6.21,6.21h0A6.21,6.21,0,0,0,217.7,203.77Z" transform="translate(-115.13 -128.16)"/><path class="cls-20" d="M202.39,203.77h0a6.21,6.21,0,0,0,6.21-6.2h0a6.21,6.21,0,0,0-6.21-6.21h0a6.21,6.21,0,0,0-6.21,6.21h0A6.21,6.21,0,0,0,202.39,203.77Z" transform="translate(-115.13 -128.16)"/><path class="cls-20" d="M187.08,203.77h0a6.21,6.21,0,0,0,6.21-6.2h0a6.21,6.21,0,0,0-6.21-6.21h0a6.21,6.21,0,0,0-6.21,6.21h0A6.21,6.21,0,0,0,187.08,203.77Z" transform="translate(-115.13 -128.16)"/><path class="cls-20" d="M178,193v9.1a1.67,1.67,0,0,1-.69,1.34,1.63,1.63,0,0,1-1,.31h-9.1a1.65,1.65,0,0,1-1.66-1.65V193a1.67,1.67,0,0,1,1.36-1.64l.3,0h9.1A1.66,1.66,0,0,1,178,193Z" transform="translate(-115.13 -128.16)"/><g class="cls-21"><path class="cls-17" d="M175.75,203.77h-4.08l-6.11-8.56V193a1.67,1.67,0,0,1,1.36-1.64Z" transform="translate(-115.13 -128.16)"/></g><g class="cls-21"><path class="cls-17" d="M178,200.45v1.67a1.67,1.67,0,0,1-.69,1.34l-8.63-12.1h2.83Z" transform="translate(-115.13 -128.16)"/></g><g class="cls-21"><path class="cls-17" d="M191.06,203.77H187l-6.1-8.56V193a1.67,1.67,0,0,1,1.36-1.64Z" transform="translate(-115.13 -128.16)"/></g><g class="cls-21"><path class="cls-17" d="M193.29,200.45v1.67a1.67,1.67,0,0,1-.69,1.34L184,191.36h2.83Z" transform="translate(-115.13 -128.16)"/></g><g class="cls-21"><path class="cls-17" d="M206.37,203.77h-4.09l-6.1-8.56V193a1.67,1.67,0,0,1,1.35-1.64Z" transform="translate(-115.13 -128.16)"/></g><g class="cls-21"><path class="cls-17" d="M208.6,200.45v1.67a1.67,1.67,0,0,1-.69,1.34l-8.63-12.1h2.83Z" transform="translate(-115.13 -128.16)"/></g><g class="cls-21"><path class="cls-17" d="M221.67,203.77h-4.08l-6.1-8.56V193a1.67,1.67,0,0,1,1.35-1.64Z" transform="translate(-115.13 -128.16)"/></g><g class="cls-21"><path class="cls-17" d="M223.9,200.45v1.67a1.66,1.66,0,0,1-.68,1.34l-8.63-12.1h2.83Z" transform="translate(-115.13 -128.16)"/></g><g class="cls-21"><path class="cls-17" d="M237,203.77H232.9l-6.1-8.56V193a1.67,1.67,0,0,1,1.35-1.64Z" transform="translate(-115.13 -128.16)"/></g><g class="cls-21"><path class="cls-17" d="M239.21,200.45v1.67a1.64,1.64,0,0,1-.69,1.34l-8.62-12.1h2.83Z" transform="translate(-115.13 -128.16)"/></g><g class="cls-18"><path class="cls-14" d="M239.2,192.78h-9.13a1.66,1.66,0,0,0-1.66,1.65v9.1a1.66,1.66,0,0,0,0,.24,1.65,1.65,0,0,1-1.63-1.65V193a1.66,1.66,0,0,1,1.66-1.66h9.1A1.66,1.66,0,0,1,239.2,192.78Z" transform="translate(-115.13 -128.16)"/><path class="cls-14" d="M223.89,192.78h-9.13a1.66,1.66,0,0,0-1.66,1.65v9.1a1.66,1.66,0,0,0,0,.24,1.65,1.65,0,0,1-1.63-1.65V193a1.66,1.66,0,0,1,1.66-1.66h9.1A1.66,1.66,0,0,1,223.89,192.78Z" transform="translate(-115.13 -128.16)"/><path class="cls-14" d="M208.58,192.78h-9.13a1.65,1.65,0,0,0-1.65,1.65v9.1a1.77,1.77,0,0,0,0,.24,1.65,1.65,0,0,1-1.63-1.65V193a1.66,1.66,0,0,1,1.66-1.66h9.1A1.66,1.66,0,0,1,208.58,192.78Z" transform="translate(-115.13 -128.16)"/><path class="cls-14" d="M193.27,192.78h-9.13a1.65,1.65,0,0,0-1.65,1.65v9.1a1.77,1.77,0,0,0,0,.24,1.65,1.65,0,0,1-1.63-1.65V193a1.66,1.66,0,0,1,1.66-1.66h9.1A1.66,1.66,0,0,1,193.27,192.78Z" transform="translate(-115.13 -128.16)"/><path class="cls-14" d="M178,192.78h-9.12a1.65,1.65,0,0,0-1.66,1.65v9.1a1.77,1.77,0,0,0,0,.24,1.65,1.65,0,0,1-1.63-1.65V193a1.66,1.66,0,0,1,1.66-1.66h9.1A1.66,1.66,0,0,1,178,192.78Z" transform="translate(-115.13 -128.16)"/></g><g class="cls-19"><path class="cls-17" d="M240.53,194.42v9.1a1.66,1.66,0,0,1-1.66,1.66h-9.1a1.65,1.65,0,0,1-1.64-1.44,1.76,1.76,0,0,0,.33,0h9.1a1.65,1.65,0,0,0,1.65-1.65V193a1.69,1.69,0,0,0,0-.23A1.65,1.65,0,0,1,240.53,194.42Z" transform="translate(-115.13 -128.16)"/><path class="cls-17" d="M225.22,194.42v9.1a1.65,1.65,0,0,1-1.65,1.66h-9.11a1.65,1.65,0,0,1-1.64-1.44l.33,0h9.1a1.65,1.65,0,0,0,1.65-1.65V193a1.69,1.69,0,0,0,0-.23A1.65,1.65,0,0,1,225.22,194.42Z" transform="translate(-115.13 -128.16)"/><path class="cls-17" d="M209.91,194.42v9.1a1.65,1.65,0,0,1-1.65,1.66h-9.11a1.66,1.66,0,0,1-1.64-1.44l.33,0h9.1a1.66,1.66,0,0,0,1.66-1.65V193a1.64,1.64,0,0,0,0-.23A1.65,1.65,0,0,1,209.91,194.42Z" transform="translate(-115.13 -128.16)"/><path class="cls-17" d="M194.61,194.42v9.1a1.66,1.66,0,0,1-1.66,1.66h-9.1a1.66,1.66,0,0,1-1.65-1.44l.33,0h9.1a1.66,1.66,0,0,0,1.66-1.65V193a1.64,1.64,0,0,0,0-.23A1.66,1.66,0,0,1,194.61,194.42Z" transform="translate(-115.13 -128.16)"/><path class="cls-17" d="M179.3,194.42v9.1a1.66,1.66,0,0,1-1.66,1.66h-9.1a1.66,1.66,0,0,1-1.65-1.44l.33,0h9.1a1.66,1.66,0,0,0,1.66-1.65V193a1.64,1.64,0,0,0,0-.23A1.66,1.66,0,0,1,179.3,194.42Z" transform="translate(-115.13 -128.16)"/></g><path class="cls-20" d="M158.42,193v9.1a1.77,1.77,0,0,1-.07.46,1.61,1.61,0,0,1-1,1.09,1.56,1.56,0,0,1-.57.1h-2.68V191.36h2.68A1.66,1.66,0,0,1,158.42,193Z" transform="translate(-115.13 -128.16)"/><g class="cls-19"><path class="cls-17" d="M159.65,194.16v9.1a1.66,1.66,0,0,1-1.66,1.66h-1.52a1.16,1.16,0,0,1-1.16-1.16v-.26h1.45a1.66,1.66,0,0,0,1.66-1.66v-9.1a1.15,1.15,0,0,0,0-.19A1.66,1.66,0,0,1,159.65,194.16Z" transform="translate(-115.13 -128.16)"/></g><g class="cls-21"><path class="cls-17" d="M158.35,202.58a1.61,1.61,0,0,1-1,1.09l-.87-.21-2.38-3.34v-3.53Z" transform="translate(-115.13 -128.16)"/></g><g class="cls-21"><polygon class="cls-17" points="43.29 69.51 43.29 72.04 38.95 65.96 38.95 63.65 39.11 63.65 43.29 69.51"/></g><path class="cls-14" d="M262.86,216.83h-2.64a2.68,2.68,0,0,1-2.68-2.68V192.76a2,2,0,0,1,2-2h3.28a.64.64,0,0,1,.64.64v24.83A.64.64,0,0,1,262.86,216.83ZM259.58,192a.77.77,0,0,0-.76.77v21.39a1.4,1.4,0,0,0,1.4,1.4h2V192Z" transform="translate(-115.13 -128.16)"/><path class="cls-22" d="M154.08,208.07h0v13.78h0A2.89,2.89,0,0,0,157,219v-8A2.89,2.89,0,0,0,154.08,208.07Z" transform="translate(-115.13 -128.16)"/><g class="cls-18"><path class="cls-14" d="M157,218.37v2.2a1.27,1.27,0,0,1-1.27,1.28h-1.62v-2.2h1.62A1.27,1.27,0,0,0,157,218.37Z" transform="translate(-115.13 -128.16)"/></g><g class="cls-19"><path class="cls-17" d="M256.42,192.87V222a2.26,2.26,0,0,1-2.26,2.26H253a2.26,2.26,0,0,0,2.26-2.26V192.87a1.51,1.51,0,0,0-1.51-1.51h1.17A1.51,1.51,0,0,1,256.42,192.87Z" transform="translate(-115.13 -128.16)"/></g><g class="cls-19"><path class="cls-17" d="M157,209.34v1.6a1.28,1.28,0,0,0-1.27-1.28h-1.62v-1.59h1.62A1.27,1.27,0,0,1,157,209.34Z" transform="translate(-115.13 -128.16)"/></g><path class="cls-20" d="M255.25,192.87v15.45H242.83V192.87a1.5,1.5,0,0,1,1.51-1.51h9.4A1.51,1.51,0,0,1,255.25,192.87Z" transform="translate(-115.13 -128.16)"/><path class="cls-14" d="M155.7,222.48h-1.62a.64.64,0,0,1-.64-.63V208.07a.64.64,0,0,1,.64-.64h1.62a1.92,1.92,0,0,1,1.91,1.91v11.23A1.91,1.91,0,0,1,155.7,222.48Zm-1-1.27h1a.64.64,0,0,0,.63-.64V209.34a.63.63,0,0,0-.63-.63h-1Z" transform="translate(-115.13 -128.16)"/><path class="cls-14" d="M157,218.47h-2.89a.64.64,0,0,1-.64-.64V213.3a.64.64,0,0,1,.64-.64H157a.64.64,0,0,1,.64.64v4.53A.64.64,0,0,1,157,218.47Zm-2.25-1.28h1.61v-3.25h-1.61Z" transform="translate(-115.13 -128.16)"/><g class="cls-21"><path class="cls-17" d="M252.9,208.32H248l-5.16-8.94v-6.51a1.51,1.51,0,0,1,.5-1.13Z" transform="translate(-115.13 -128.16)"/></g><g class="cls-21"><polygon class="cls-17" points="140.12 73.61 140.12 79.07 130.96 63.2 134.11 63.2 140.12 73.61"/></g><path class="cls-14" d="M253,224.87h-4.05a2.49,2.49,0,0,1-2.42-1.94,7.21,7.21,0,0,0-3.14-4.39,2.52,2.52,0,0,1-1.19-2.13V192.87a2.15,2.15,0,0,1,2.15-2.15h9.4a2.15,2.15,0,0,1,2.15,2.15V222A2.9,2.9,0,0,1,253,224.87ZM244.34,192a.88.88,0,0,0-.87.88v23.54a1.25,1.25,0,0,0,.59,1.05,8.46,8.46,0,0,1,3.7,5.18,1.23,1.23,0,0,0,1.18,1H253a1.63,1.63,0,0,0,1.62-1.62V192.87a.88.88,0,0,0-.87-.88Z" transform="translate(-115.13 -128.16)"/><path class="cls-14" d="M237.56,204.41h-9.1a2.3,2.3,0,0,1-2.3-2.29V193a2.3,2.3,0,0,1,2.3-2.3h9.1a2.3,2.3,0,0,1,2.29,2.3v9.1A2.3,2.3,0,0,1,237.56,204.41ZM228.46,192a1,1,0,0,0-1,1v9.1a1,1,0,0,0,1,1h9.1a1,1,0,0,0,1-1V193a1,1,0,0,0-1-1Z" transform="translate(-115.13 -128.16)"/><path class="cls-14" d="M222.25,204.41h-9.1a2.3,2.3,0,0,1-2.3-2.29V193a2.3,2.3,0,0,1,2.3-2.3h9.1a2.3,2.3,0,0,1,2.29,2.3v9.1A2.3,2.3,0,0,1,222.25,204.41ZM213.15,192a1,1,0,0,0-1,1v9.1a1,1,0,0,0,1,1h9.1a1,1,0,0,0,1-1V193a1,1,0,0,0-1-1Z" transform="translate(-115.13 -128.16)"/><path class="cls-14" d="M206.94,204.41h-9.1a2.3,2.3,0,0,1-2.3-2.29V193a2.3,2.3,0,0,1,2.3-2.3h9.1a2.3,2.3,0,0,1,2.29,2.3v9.1A2.3,2.3,0,0,1,206.94,204.41ZM197.84,192a1,1,0,0,0-1,1v9.1a1,1,0,0,0,1,1h9.1a1,1,0,0,0,1-1V193a1,1,0,0,0-1-1Z" transform="translate(-115.13 -128.16)"/><path class="cls-14" d="M191.63,204.41h-9.1a2.3,2.3,0,0,1-2.3-2.29V193a2.3,2.3,0,0,1,2.3-2.3h9.1a2.3,2.3,0,0,1,2.3,2.3v9.1A2.3,2.3,0,0,1,191.63,204.41ZM182.53,192a1,1,0,0,0-1,1v9.1a1,1,0,0,0,1,1h9.1a1,1,0,0,0,1-1V193a1,1,0,0,0-1-1Z" transform="translate(-115.13 -128.16)"/><path class="cls-14" d="M176.32,204.41h-9.1a2.3,2.3,0,0,1-2.3-2.29V193a2.3,2.3,0,0,1,2.3-2.3h9.1a2.3,2.3,0,0,1,2.3,2.3v9.1A2.3,2.3,0,0,1,176.32,204.41ZM167.22,192a1,1,0,0,0-1,1v9.1a1,1,0,0,0,1,1h9.1a1,1,0,0,0,1-1V193a1,1,0,0,0-1-1Z" transform="translate(-115.13 -128.16)"/><path class="cls-14" d="M156.76,204.41h-2.68a.64.64,0,1,1,0-1.27h2.68a1,1,0,0,0,1-1V193a1,1,0,0,0-1-1h-2.68a.64.64,0,1,1,0-1.27h2.68a2.3,2.3,0,0,1,2.3,2.3v9.1A2.3,2.3,0,0,1,156.76,204.41Z" transform="translate(-115.13 -128.16)"/><path class="cls-14" d="M255.25,209H242.83a.64.64,0,1,1,0-1.27h12.42a.64.64,0,1,1,0,1.27Z" transform="translate(-115.13 -128.16)"/><path class="cls-14" d="M245.42,213.75h0a.84.84,0,0,1-.83-.83v-1.79a.83.83,0,0,1,.83-.83h0a.83.83,0,0,1,.83.83v1.79A.83.83,0,0,1,245.42,213.75Z" transform="translate(-115.13 -128.16)"/><path class="cls-14" d="M184.31,228.29l-.21,0H183a1.76,1.76,0,0,1-1.76-1.76v-1.85a5.14,5.14,0,0,0-4.84-5.16,5,5,0,0,0-5.22,5v1.73a1.77,1.77,0,0,1-.64,1.37,1.79,1.79,0,0,1-1.46.36l-13.76-2.32a2.29,2.29,0,0,1-1.91-2.26V191.53a4.93,4.93,0,0,1,4.92-4.93H258.78a4.76,4.76,0,0,1,4.75,4.76v35.15a1.76,1.76,0,0,1-1.77,1.76H246.11a1.76,1.76,0,0,1-1.76-1.76v-1.85a5.15,5.15,0,0,0-4.85-5.16,5,5,0,0,0-5.21,5v2a1.76,1.76,0,0,1-1.77,1.76H198a1.76,1.76,0,0,1-1.76-1.76v-1.85c0-.21,0-.43,0-.64a5.13,5.13,0,0,0-4.81-4.52,5.05,5.05,0,0,0-5.19,4.51c0,.17,0,.34,0,.52v1.73a2.1,2.1,0,0,1-1.53,2h0A1.12,1.12,0,0,1,184.31,228.29Zm55-10.13h.23a6.49,6.49,0,0,1,6.13,6.5v1.85a.43.43,0,0,0,.43.42h15.65a.42.42,0,0,0,.43-.42V191.36a3.42,3.42,0,0,0-3.41-3.42H158.33a3.59,3.59,0,0,0-3.58,3.59v31.88a1,1,0,0,0,.79.94l13.77,2.32h0a.44.44,0,0,0,.52-.42v-1.73a6.36,6.36,0,0,1,6.59-6.37,6.49,6.49,0,0,1,6.14,6.5v1.85a.42.42,0,0,0,.42.42h1.38a.79.79,0,0,0,.42-.67v-1.73q0-.33,0-.66a6.39,6.39,0,0,1,6.57-5.71,6.47,6.47,0,0,1,6.08,5.7,5.29,5.29,0,0,1,.05.8v1.85a.42.42,0,0,0,.43.42h34.56a.42.42,0,0,0,.43-.42v-2a6.37,6.37,0,0,1,6.37-6.37Z" transform="translate(-115.13 -128.16)"/><path class="cls-16" d="M263.54,220.87h-2.33a1.32,1.32,0,0,0-1.33,1.32v5.41h.33a5,5,0,0,0,5-5h0A1.7,1.7,0,0,0,263.54,220.87Z" transform="translate(-115.13 -128.16)"/><path class="cls-14" d="M262,227.69h-2.18v-6a1,1,0,0,1,.95-.95h3.39a1.19,1.19,0,0,1,1.2,1.19v2.36A3.36,3.36,0,0,1,262,227.69Zm-2-.18h2a3.19,3.19,0,0,0,3.18-3.18V222a1,1,0,0,0-1-1h-3.39a.78.78,0,0,0-.77.77Z" transform="translate(-115.13 -128.16)"/><g class="cls-18"><path class="cls-14" d="M262,224.48h-2.09V228H262a3.26,3.26,0,0,0,3.27-3.27v-2.36a1.11,1.11,0,0,0-.08-.41A3.27,3.27,0,0,1,262,224.48Z" transform="translate(-115.13 -128.16)"/></g><g class="cls-19"><path class="cls-17" d="M265.24,222v1.62a1.11,1.11,0,0,0-1.11-1.11h-3.39a.87.87,0,0,0-.86.86v-1.61a.87.87,0,0,1,.86-.86h3.39A1.11,1.11,0,0,1,265.24,222Z" transform="translate(-115.13 -128.16)"/></g><path class="cls-14" d="M262,228.27h-2.09a.67.67,0,0,1-.67-.67v-5.87a1.54,1.54,0,0,1,1.53-1.53h3.39a1.78,1.78,0,0,1,1.78,1.77v2.36A4,4,0,0,1,262,228.27Zm-1.42-1.34H262a2.6,2.6,0,0,0,2.6-2.6V222a.44.44,0,0,0-.44-.43h-3.39a.19.19,0,0,0-.19.19Z" transform="translate(-115.13 -128.16)"/><path class="cls-16" d="M269.64,193.26V198a2.08,2.08,0,0,1-2.08,2.08,1,1,0,0,1-1-1V193.7H255.25v-1.37a1,1,0,0,1,1-1h11.51A1.9,1.9,0,0,1,269.64,193.26Z" transform="translate(-115.13 -128.16)"/><path class="cls-14" d="M267.56,200.13a1.08,1.08,0,0,1-1.07-1.08V193.8H255.16v-1.47a1.06,1.06,0,0,1,1.06-1.07h11.51a2,2,0,0,1,2,2V198A2.18,2.18,0,0,1,267.56,200.13Zm-12.22-6.52h11.33v5.44a.89.89,0,0,0,.89.89,2,2,0,0,0,2-2v-4.69a1.82,1.82,0,0,0-1.82-1.81H256.22a.87.87,0,0,0-.88.88Z" transform="translate(-115.13 -128.16)"/><g class="cls-19"><path class="cls-17" d="M269.64,193.26v1a1.9,1.9,0,0,0-1.91-1.9H256.22a1,1,0,0,0-1,1v-1a1,1,0,0,1,1-1h11.51A1.9,1.9,0,0,1,269.64,193.26Z" transform="translate(-115.13 -128.16)"/></g><g class="cls-18"><path class="cls-14" d="M269.64,195.45V198a2.08,2.08,0,0,1-2.08,2.08,1,1,0,0,1-1-1v-2.51a1,1,0,0,0,1,1A2.08,2.08,0,0,0,269.64,195.45Z" transform="translate(-115.13 -128.16)"/></g><path class="cls-14" d="M267.56,200.67a1.62,1.62,0,0,1-1.62-1.62v-4.71H255.25a.63.63,0,0,1-.64-.64v-1.37a1.61,1.61,0,0,1,1.61-1.61h11.51a2.55,2.55,0,0,1,2.55,2.54V198A2.72,2.72,0,0,1,267.56,200.67Zm-11.68-7.6h10.7a.64.64,0,0,1,.64.63v5.35a.35.35,0,0,0,.34.35A1.44,1.44,0,0,0,269,198v-4.69a1.27,1.27,0,0,0-1.27-1.27H256.22a.34.34,0,0,0-.34.34Z" transform="translate(-115.13 -128.16)"/><path class="cls-23" d="M244.8,225a5.53,5.53,0,0,1-11,1.38,5.44,5.44,0,0,1,.14-2.1h0a5.54,5.54,0,0,1,10.6-.35A6.17,6.17,0,0,1,244.8,225Z" transform="translate(-115.13 -128.16)"/><path class="cls-14" d="M239.31,231.91a6.2,6.2,0,1,1,.78,0A7.11,7.11,0,0,1,239.31,231.91Zm0-11.07c-.2,0-.41,0-.62,0a4.83,4.83,0,1,0,.62,0Z" transform="translate(-115.13 -128.16)"/><path class="cls-24" d="M242.17,225.35a2.88,2.88,0,1,1-3.22-2.51A2.88,2.88,0,0,1,242.17,225.35Z" transform="translate(-115.13 -128.16)"/><path class="cls-14" d="M239.31,228.68a3,3,0,1,1,1.83-5.33,3,3,0,0,1-1.46,5.31Zm0-5.77-.36,0a2.8,2.8,0,1,0,3.12,2.43h0a2.8,2.8,0,0,0-2.76-2.45Z" transform="translate(-115.13 -128.16)"/><g class="cls-18"><path class="cls-14" d="M242.17,225.36a2.88,2.88,0,0,0-5.25,1.95,2.79,2.79,0,0,1-.47-1.24,2.88,2.88,0,1,1,5.72-.73Z" transform="translate(-115.13 -128.16)"/></g><path class="cls-14" d="M240.11,225.61a.81.81,0,1,1-.9-.7A.81.81,0,0,1,240.11,225.61Z" transform="translate(-115.13 -128.16)"/><path class="cls-14" d="M239.65,224.06a.33.33,0,0,1-.3.38.34.34,0,1,1-.08-.68A.33.33,0,0,1,239.65,224.06Z" transform="translate(-115.13 -128.16)"/><path class="cls-14" d="M239.65,227.27a.33.33,0,0,1-.3.38.34.34,0,1,1,.3-.38Z" transform="translate(-115.13 -128.16)"/><path class="cls-14" d="M238.05,224.59a.34.34,0,0,1,.19.45.35.35,0,0,1-.45.18.35.35,0,0,1-.19-.45A.34.34,0,0,1,238.05,224.59Z" transform="translate(-115.13 -128.16)"/><path class="cls-14" d="M240.83,226.19a.35.35,0,0,1,.19.45.35.35,0,0,1-.45.19.36.36,0,0,1-.19-.46A.35.35,0,0,1,240.83,226.19Z" transform="translate(-115.13 -128.16)"/><path class="cls-14" d="M237.71,226.23a.35.35,0,0,1,.48.07.34.34,0,0,1-.54.42A.35.35,0,0,1,237.71,226.23Z" transform="translate(-115.13 -128.16)"/><path class="cls-14" d="M240.49,224.63a.35.35,0,0,1,.49.06.36.36,0,0,1-.07.49.35.35,0,0,1-.48-.07A.34.34,0,0,1,240.49,224.63Z" transform="translate(-115.13 -128.16)"/><g class="cls-19"><path class="cls-17" d="M239.67,229.49a2.9,2.9,0,0,1-3.21-3.33,2.89,2.89,0,0,0,5.7,0s0,.06,0,.1A2.88,2.88,0,0,1,239.67,229.49Z" transform="translate(-115.13 -128.16)"/></g><path class="cls-14" d="M239.31,229.05a3.34,3.34,0,0,1-2.64-5.4,3.39,3.39,0,0,1,2.22-1.27,3.35,3.35,0,0,1,.84,6.65Zm0-5.77-.31,0a2.42,2.42,0,0,0,.6,4.81,2.42,2.42,0,0,0,2.1-2.71h0a2.41,2.41,0,0,0-.91-1.61A2.44,2.44,0,0,0,239.32,223.28Z" transform="translate(-115.13 -128.16)"/><g class="cls-18"><path class="cls-14" d="M244.56,224a1.7,1.7,0,0,0-2.65.42c-.31-2.49-5.72-1.81-5.41.68a1.88,1.88,0,0,0-2.54-.75h0a5.54,5.54,0,0,1,10.6-.35Z" transform="translate(-115.13 -128.16)"/></g><path class="cls-23" d="M196.55,225a5.53,5.53,0,0,1-11,1.38,5.44,5.44,0,0,1,.14-2.1h0A5.53,5.53,0,0,1,196.3,224,5.38,5.38,0,0,1,196.55,225Z" transform="translate(-115.13 -128.16)"/><path class="cls-14" d="M191.05,231.91a6.21,6.21,0,1,1,.78,0A6.81,6.81,0,0,1,191.05,231.91Zm0-11.07c-.21,0-.41,0-.62,0a4.83,4.83,0,1,0,.62,0Z" transform="translate(-115.13 -128.16)"/><path class="cls-24" d="M193.92,225.35a2.89,2.89,0,1,1-3.22-2.51A2.88,2.88,0,0,1,193.92,225.35Z" transform="translate(-115.13 -128.16)"/><path class="cls-14" d="M191.05,228.68a3,3,0,1,1,.38,0Zm0-5.77-.35,0a2.81,2.81,0,1,0,.35,0Z" transform="translate(-115.13 -128.16)"/><g class="cls-18"><path class="cls-14" d="M193.92,225.36a2.88,2.88,0,0,0-5.26,1.95,2.89,2.89,0,1,1,5.26-2Z" transform="translate(-115.13 -128.16)"/></g><path class="cls-14" d="M191.85,225.61a.79.79,0,0,1-.69.89.8.8,0,1,1,.69-.89Z" transform="translate(-115.13 -128.16)"/><path class="cls-14" d="M191.4,224.06a.34.34,0,0,1-.3.38.35.35,0,0,1-.39-.3.34.34,0,0,1,.3-.38A.35.35,0,0,1,191.4,224.06Z" transform="translate(-115.13 -128.16)"/><path class="cls-14" d="M191.4,227.27a.34.34,0,0,1-.3.38.35.35,0,0,1-.39-.3.34.34,0,0,1,.3-.38A.36.36,0,0,1,191.4,227.27Z" transform="translate(-115.13 -128.16)"/><path class="cls-14" d="M189.8,224.59a.34.34,0,0,1,.18.45.35.35,0,0,1-.45.18.35.35,0,0,1-.18-.45A.33.33,0,0,1,189.8,224.59Z" transform="translate(-115.13 -128.16)"/><path class="cls-14" d="M192.58,226.19a.33.33,0,0,1,.18.45.34.34,0,0,1-.45.19.36.36,0,0,1-.18-.46A.35.35,0,0,1,192.58,226.19Z" transform="translate(-115.13 -128.16)"/><path class="cls-14" d="M189.46,226.23a.35.35,0,0,1,.48.07.33.33,0,0,1-.07.48.34.34,0,0,1-.48-.06A.36.36,0,0,1,189.46,226.23Z" transform="translate(-115.13 -128.16)"/><path class="cls-14" d="M192.24,224.63a.34.34,0,0,1,.48.06.34.34,0,0,1-.07.49.34.34,0,1,1-.41-.55Z" transform="translate(-115.13 -128.16)"/><g class="cls-19"><path class="cls-17" d="M191.42,229.49a2.89,2.89,0,0,1-3.23-2.5,3.29,3.29,0,0,1,0-.83,2.88,2.88,0,0,0,5.69,0s0,.06,0,.1A2.88,2.88,0,0,1,191.42,229.49Z" transform="translate(-115.13 -128.16)"/></g><path class="cls-14" d="M191.05,229.05a3.31,3.31,0,1,1,.42,0Zm0-5.77-.31,0a2.42,2.42,0,1,0,.31,0Z" transform="translate(-115.13 -128.16)"/><g class="cls-18"><path class="cls-14" d="M196.3,224a1.69,1.69,0,0,0-2.64.42c-.32-2.49-5.72-1.81-5.41.68a1.88,1.88,0,0,0-2.54-.75h0A5.53,5.53,0,0,1,196.3,224Z" transform="translate(-115.13 -128.16)"/></g><path class="cls-25" d="M188.44,183.26H172.67a4,4,0,0,0-4,4h23.79A4,4,0,0,0,188.44,183.26Z" transform="translate(-115.13 -128.16)"/><g class="cls-19"><path class="cls-17" d="M192.45,185.41v1.33a2.15,2.15,0,0,0-2.15-2.15H170.81a2.15,2.15,0,0,0-2.15,2.15v-1.33a2.15,2.15,0,0,1,2.15-2.15H190.3A2.15,2.15,0,0,1,192.45,185.41Z" transform="translate(-115.13 -128.16)"/></g><path class="cls-14" d="M192.45,187.94H168.66a.67.67,0,0,1-.67-.67v-1.86a2.82,2.82,0,0,1,2.82-2.82H190.3a2.83,2.83,0,0,1,2.82,2.82v1.86A.67.67,0,0,1,192.45,187.94Zm-23.12-1.34h22.45v-1.19a1.49,1.49,0,0,0-1.48-1.48H170.81a1.48,1.48,0,0,0-1.48,1.48Z" transform="translate(-115.13 -128.16)"/><path class="cls-25" d="M240.88,183.26H225.11a4,4,0,0,0-4,4h23.79A4,4,0,0,0,240.88,183.26Z" transform="translate(-115.13 -128.16)"/><g class="cls-19"><path class="cls-17" d="M244.89,185.41v1.33a2.15,2.15,0,0,0-2.15-2.15H223.25a2.15,2.15,0,0,0-2.15,2.15v-1.33a2.15,2.15,0,0,1,2.15-2.15h19.49A2.15,2.15,0,0,1,244.89,185.41Z" transform="translate(-115.13 -128.16)"/></g><path class="cls-14" d="M244.89,187.94H221.1a.67.67,0,0,1-.67-.67v-1.86a2.83,2.83,0,0,1,2.82-2.82h19.49a2.82,2.82,0,0,1,2.82,2.82v1.86A.67.67,0,0,1,244.89,187.94Zm-23.12-1.34h22.45v-1.19a1.48,1.48,0,0,0-1.48-1.48H223.25a1.49,1.49,0,0,0-1.48,1.48Z" transform="translate(-115.13 -128.16)"/><g class="cls-18"><path class="cls-14" d="M244.48,194.34a1.55,1.55,0,0,1,.5-1.13,1.5,1.5,0,0,1,1-.38h9.44a1.51,1.51,0,0,0-1.51-1.47h-9.4a1.48,1.48,0,0,0-1,.38,1.52,1.52,0,0,0-.51,1.13v15.45h1.47Z" transform="translate(-115.13 -128.16)"/></g><path class="cls-23" d="M181.86,225a5.53,5.53,0,0,1-11,1.38,5.44,5.44,0,0,1,.14-2.1h0a5.54,5.54,0,0,1,10.6-.35A6.17,6.17,0,0,1,181.86,225Z" transform="translate(-115.13 -128.16)"/><path class="cls-14" d="M176.36,231.91a6.2,6.2,0,1,1,3.81-11.1,6.11,6.11,0,0,1,2.35,4.12,6.19,6.19,0,0,1-5.38,6.93A6.81,6.81,0,0,1,176.36,231.91Zm0-11.07c-.21,0-.41,0-.62,0a4.86,4.86,0,1,0,4.45,7.81,4.88,4.88,0,0,0-.86-6.83A4.88,4.88,0,0,0,176.38,220.84Z" transform="translate(-115.13 -128.16)"/><path class="cls-24" d="M179.23,225.35a2.88,2.88,0,1,1-3.22-2.51A2.88,2.88,0,0,1,179.23,225.35Z" transform="translate(-115.13 -128.16)"/><path class="cls-14" d="M176.37,228.68a2.92,2.92,0,1,1,.37,0Zm0-5.77-.35,0a2.8,2.8,0,0,0,.7,5.55,2.81,2.81,0,0,0,2.42-3.12h0A2.8,2.8,0,0,0,176.37,222.91Z" transform="translate(-115.13 -128.16)"/><g class="cls-18"><path class="cls-14" d="M179.23,225.36a2.88,2.88,0,0,0-5.26,1.95,2.89,2.89,0,1,1,5.26-2Z" transform="translate(-115.13 -128.16)"/></g><path class="cls-14" d="M177.17,225.61a.81.81,0,1,1-.9-.7A.81.81,0,0,1,177.17,225.61Z" transform="translate(-115.13 -128.16)"/><path class="cls-14" d="M176.71,224.06a.34.34,0,0,1-.3.38.34.34,0,0,1-.08-.68A.34.34,0,0,1,176.71,224.06Z" transform="translate(-115.13 -128.16)"/><path class="cls-14" d="M176.71,227.27a.34.34,0,0,1-.3.38.34.34,0,0,1-.08-.68A.35.35,0,0,1,176.71,227.27Z" transform="translate(-115.13 -128.16)"/><path class="cls-14" d="M175.11,224.59a.34.34,0,0,1,.19.45.35.35,0,0,1-.45.18.35.35,0,0,1-.19-.45A.34.34,0,0,1,175.11,224.59Z" transform="translate(-115.13 -128.16)"/><path class="cls-14" d="M177.89,226.19a.35.35,0,0,1,.19.45.35.35,0,0,1-.45.19.36.36,0,0,1-.19-.46A.35.35,0,0,1,177.89,226.19Z" transform="translate(-115.13 -128.16)"/><path class="cls-14" d="M174.77,226.23a.35.35,0,0,1,.48.07.34.34,0,0,1-.06.48.35.35,0,0,1-.49-.06A.36.36,0,0,1,174.77,226.23Z" transform="translate(-115.13 -128.16)"/><path class="cls-14" d="M177.55,224.63a.34.34,0,0,1,.48.06.35.35,0,0,1-.06.49.36.36,0,0,1-.49-.07A.35.35,0,0,1,177.55,224.63Z" transform="translate(-115.13 -128.16)"/><g class="cls-19"><path class="cls-17" d="M176.73,229.49a2.9,2.9,0,0,1-3.21-3.33,2.89,2.89,0,0,0,5.7,0s0,.06,0,.1A2.88,2.88,0,0,1,176.73,229.49Z" transform="translate(-115.13 -128.16)"/></g><path class="cls-14" d="M176.37,229.05a3.35,3.35,0,0,1-.42-6.67,3.35,3.35,0,0,1,3.74,2.91,3.35,3.35,0,0,1-2.9,3.74Zm0-5.77-.3,0a2.38,2.38,0,0,0-1.61.92,2.42,2.42,0,1,0,4.31,1.18h0a2.43,2.43,0,0,0-2.4-2.12Z" transform="translate(-115.13 -128.16)"/><g class="cls-18"><path class="cls-14" d="M181.62,224a1.7,1.7,0,0,0-2.65.42c-.31-2.49-5.72-1.81-5.41.68a1.88,1.88,0,0,0-2.54-.75h0a5.54,5.54,0,0,1,10.6-.35Z" transform="translate(-115.13 -128.16)"/></g><path class="cls-14" d="M267.15,231.45a53.92,53.92,0,0,1-6.94.46c-2.32,0-4.64,0-6.95,0l-3.48,0H166.41l-1.73,0-1.74,0c-1.16,0-2.32,0-3.47-.07a22.93,22.93,0,0,1-3.48-.41.22.22,0,0,1-.17-.26A.24.24,0,0,1,156,231a24.27,24.27,0,0,1,3.48-.41c1.15-.05,2.31-.07,3.47-.06l1.74,0,1.73,0h83.37l3.48,0c2.31,0,4.63-.05,6.95,0a55.76,55.76,0,0,1,6.94.45.23.23,0,0,1,.19.25A.21.21,0,0,1,267.15,231.45Z" transform="translate(-115.13 -128.16)"/></svg>